<svg xmlns="http://www.w3.org/2000/svg" version="1.1" xmlns:xlink="http://www.w3.org/1999/xlink" width="1000" height="1000"><metadata><rdf:RDF xmlns:rdf="http://www.w3.org/1999/02/22-rdf-syntax-ns#" xmlns:dc="http://purl.org/dc/elements/1.1/"><rdf:Description><dc:creator>RealFaviconGenerator</dc:creator><dc:source>https://realfavicongenerator.net</dc:source></rdf:Description></rdf:RDF></metadata><g clip-path="url(#SvgjsClipPath1025)"><rect width="1000" height="1000" fill="#ffffff"></rect><g transform="matrix(21.875,0,0,21.875,150,150)"><svg xmlns="http://www.w3.org/2000/svg" version="1.1" xmlns:xlink="http://www.w3.org/1999/xlink" width="32px" height="32px" viewBox="0 0 32 32"><g id="surface1">
<path style=" stroke:none;fill-rule:nonzero;fill:rgb(8.627451%,63.921571%,29.019609%);fill-opacity:1;" d="M 23.15625 0.65625 C 23.019531 0.789062 23 0.863281 23 1.269531 L 23 1.730469 L 22.582031 1.894531 L 22.164062 2.0625 L 21.832031 1.738281 C 21.324219 1.238281 21.28125 1.257812 20.269531 2.261719 C 19.519531 3.011719 19.4375 3.113281 19.4375 3.3125 C 19.4375 3.488281 19.492188 3.585938 19.75 3.84375 L 20.0625 4.164062 L 19.894531 4.582031 L 19.730469 5 L 19.269531 5 C 18.863281 5 18.789062 5.019531 18.65625 5.15625 C 18.5 5.304688 18.5 5.320312 18.5 6.5 C 18.5 7.679688 18.5 7.695312 18.65625 7.84375 C 18.789062 7.980469 18.863281 8 19.269531 8 L 19.730469 8 L 19.894531 8.417969 L 20.0625 8.835938 L 19.75 9.15625 C 19.492188 9.414062 19.4375 9.511719 19.4375 9.6875 C 19.4375 9.882812 19.523438 9.988281 20.261719 10.730469 C 21.011719 11.480469 21.113281 11.5625 21.3125 11.5625 C 21.488281 11.5625 21.585938 11.507812 21.84375 11.25 L 22.164062 10.9375 L 22.582031 11.105469 L 23 11.269531 L 23 11.730469 C 23 12.136719 23.019531 12.210938 23.15625 12.34375 C 23.304688 12.5 23.320312 12.5 24.5 12.5 C 25.679688 12.5 25.695312 12.5 25.84375 12.34375 C 25.980469 12.210938 26 12.136719 26 11.730469 L 26 11.269531 L 26.417969 11.105469 L 26.835938 10.9375 L 27.15625 11.25 C 27.414062 11.507812 27.511719 11.5625 27.6875 11.5625 C 27.886719 11.5625 27.988281 11.480469 28.738281 10.730469 C 29.476562 9.988281 29.5625 9.882812 29.5625 9.6875 C 29.5625 9.511719 29.507812 9.414062 29.25 9.15625 L 28.9375 8.835938 L 29.105469 8.417969 L 29.269531 8 L 29.730469 8 C 30.136719 8 30.210938 7.980469 30.34375 7.84375 C 30.5 7.695312 30.5 7.679688 30.5 6.5 C 30.5 5.320312 30.5 5.304688 30.34375 5.15625 C 30.210938 5.019531 30.136719 5 29.730469 5 L 29.269531 5 L 29.105469 4.582031 L 28.9375 4.164062 L 29.25 3.84375 C 29.507812 3.585938 29.5625 3.488281 29.5625 3.3125 C 29.5625 3.113281 29.480469 3.011719 28.730469 2.261719 C 27.71875 1.257812 27.675781 1.238281 27.167969 1.738281 L 26.835938 2.0625 L 26.417969 1.894531 L 26 1.730469 L 26 1.269531 C 26 0.863281 25.980469 0.789062 25.84375 0.65625 C 25.695312 0.5 25.679688 0.5 24.5 0.5 C 23.320312 0.5 23.304688 0.5 23.15625 0.65625 Z M 25 1.894531 C 25 2.394531 25.09375 2.5 25.667969 2.6875 C 25.898438 2.761719 26.242188 2.90625 26.417969 3.007812 C 26.875 3.257812 27.007812 3.242188 27.382812 2.894531 L 27.695312 2.601562 L 28.042969 2.957031 L 28.398438 3.304688 L 28.105469 3.617188 C 27.757812 3.992188 27.742188 4.125 27.992188 4.582031 C 28.09375 4.757812 28.238281 5.101562 28.3125 5.332031 C 28.5 5.90625 28.605469 6 29.105469 6 L 29.5 6 L 29.5 7 L 29.105469 7 C 28.605469 7 28.5 7.09375 28.3125 7.667969 C 28.238281 7.898438 28.09375 8.242188 27.992188 8.417969 C 27.742188 8.875 27.757812 9.007812 28.105469 9.382812 L 28.398438 9.695312 L 28.042969 10.042969 L 27.695312 10.398438 L 27.382812 10.105469 C 27.007812 9.757812 26.875 9.742188 26.417969 9.992188 C 26.242188 10.09375 25.898438 10.238281 25.667969 10.3125 C 25.09375 10.5 25 10.605469 25 11.105469 L 25 11.5 L 24 11.5 L 24 11.105469 C 24 10.605469 23.90625 10.5 23.332031 10.3125 C 23.101562 10.238281 22.757812 10.09375 22.582031 9.992188 C 22.125 9.742188 21.992188 9.757812 21.617188 10.105469 L 21.304688 10.398438 L 20.957031 10.042969 L 20.601562 9.695312 L 20.894531 9.382812 C 21.242188 9.007812 21.257812 8.875 21.007812 8.417969 C 20.90625 8.242188 20.761719 7.898438 20.6875 7.667969 C 20.5 7.09375 20.394531 7 19.894531 7 L 19.5 7 L 19.5 6 L 19.894531 6 C 20.394531 6 20.5 5.90625 20.6875 5.332031 C 20.761719 5.101562 20.90625 4.757812 21.007812 4.582031 C 21.257812 4.125 21.242188 3.992188 20.894531 3.617188 L 20.601562 3.304688 L 20.957031 2.957031 L 21.304688 2.601562 L 21.617188 2.894531 C 21.992188 3.242188 22.125 3.257812 22.582031 3.007812 C 22.757812 2.90625 23.101562 2.761719 23.332031 2.6875 C 23.90625 2.5 24 2.394531 24 1.894531 L 24 1.5 L 25 1.5 Z M 25 1.894531 "></path>
<path style=" stroke:none;fill-rule:nonzero;fill:rgb(23.137255%,50.980395%,96.470588%);fill-opacity:1;" d="M 23.78125 3.074219 C 23.21875 3.179688 22.507812 3.574219 22.039062 4.039062 C 20.167969 5.90625 20.945312 8.992188 23.5 9.851562 C 23.976562 10.011719 25.023438 10.011719 25.5 9.851562 C 26.65625 9.460938 27.460938 8.648438 27.851562 7.5 C 28.011719 7.023438 28.011719 5.976562 27.851562 5.5 C 27.519531 4.523438 26.894531 3.789062 26.042969 3.382812 C 25.292969 3.019531 24.582031 2.925781 23.78125 3.074219 Z M 25.523438 4.238281 C 26.09375 4.5 26.457031 4.863281 26.738281 5.425781 C 26.957031 5.875 26.96875 5.929688 26.96875 6.5 C 26.96875 7.070312 26.957031 7.125 26.738281 7.574219 C 26.457031 8.144531 26.09375 8.492188 25.511719 8.769531 C 25.132812 8.949219 25.039062 8.96875 24.5 8.96875 C 23.960938 8.96875 23.867188 8.949219 23.488281 8.769531 C 22.90625 8.492188 22.542969 8.144531 22.261719 7.574219 C 22.042969 7.125 22.03125 7.070312 22.03125 6.507812 C 22.03125 5.960938 22.050781 5.867188 22.230469 5.488281 C 22.480469 4.957031 22.835938 4.570312 23.304688 4.324219 C 23.792969 4.0625 24.070312 4 24.636719 4.023438 C 25.019531 4.042969 25.210938 4.09375 25.523438 4.238281 Z M 25.523438 4.238281 "></path>
<path style=" stroke:none;fill-rule:nonzero;fill:rgb(0.784314%,2.352941%,9.019608%);fill-opacity:1;" d="M 6.15625 8.15625 C 6.007812 8.300781 6 8.335938 6 9.15625 L 6 10 L 2.804688 10 L 2.65625 10.15625 L 2.5 10.304688 L 2.5 27.5 L 1.65625 27.5 C 0.835938 27.5 0.800781 27.507812 0.65625 27.65625 C 0.5 27.804688 0.5 27.820312 0.5 29.007812 C 0.5 29.761719 0.523438 30.300781 0.574219 30.460938 C 0.675781 30.804688 1.195312 31.324219 1.539062 31.425781 C 1.914062 31.539062 30.085938 31.539062 30.460938 31.425781 C 30.804688 31.324219 31.324219 30.804688 31.425781 30.460938 C 31.476562 30.300781 31.5 29.761719 31.5 29.007812 C 31.5 27.820312 31.5 27.804688 31.34375 27.65625 C 31.199219 27.507812 31.164062 27.5 30.34375 27.5 L 29.5 27.5 L 29.5 11.5 L 28.5 11.5 L 28.5 27.5 L 3.5 27.5 L 3.5 11 L 6 11 L 6 11.5 L 5.15625 11.5 C 4.335938 11.5 4.300781 11.507812 4.15625 11.65625 L 4 11.804688 L 4 26.695312 L 4.15625 26.84375 L 4.304688 27 L 27.695312 27 L 27.84375 26.84375 L 28 26.695312 L 28 12 L 27 12 L 27 26 L 5 26 L 5 12.5 L 6 12.5 L 6 15.695312 L 6.15625 15.84375 L 6.304688 16 L 13.695312 16 L 13.84375 15.84375 L 14 15.695312 L 14 12.5 L 18.5 12.5 L 18.5 11.5 L 14 11.5 L 14 11 L 18.5 11 L 18.5 10 L 14 10 L 14 9.15625 C 14 8.335938 13.992188 8.300781 13.84375 8.15625 L 13.695312 8 L 6.304688 8 Z M 13 12 L 13 15 L 7 15 L 7 9 L 13 9 Z M 30.5 29.34375 C 30.5 30.164062 30.492188 30.199219 30.34375 30.34375 L 30.195312 30.5 L 1.804688 30.5 L 1.65625 30.34375 C 1.507812 30.199219 1.5 30.164062 1.5 29.34375 L 1.5 28.5 L 30.5 28.5 Z M 30.5 29.34375 "></path>
<path style=" stroke:none;fill-rule:nonzero;fill:rgb(8.627451%,63.921571%,29.019609%);fill-opacity:1;" d="M 10.53125 11.40625 C 9.957031 12.320312 9.46875 13.0625 9.449219 13.0625 C 9.425781 13.054688 9.179688 12.757812 8.90625 12.382812 L 8.40625 11.699219 L 8.15625 11.882812 C 8.019531 11.980469 7.835938 12.117188 7.757812 12.179688 L 7.601562 12.300781 L 8.398438 13.367188 C 9.230469 14.480469 9.351562 14.582031 9.675781 14.460938 C 9.792969 14.417969 10.164062 13.875 11.132812 12.332031 L 12.425781 10.261719 L 12.042969 10.019531 C 11.832031 9.886719 11.644531 9.773438 11.617188 9.761719 C 11.59375 9.75 11.105469 10.492188 10.53125 11.40625 Z M 10.53125 11.40625 "></path>
<path style=" stroke:none;fill-rule:nonzero;fill:rgb(8.627451%,63.921571%,29.019609%);fill-opacity:1;" d="M 22 13.28125 C 22 13.511719 21.980469 13.5625 21.886719 13.5625 C 21.6875 13.5625 21.042969 13.804688 20.726562 14.007812 L 20.417969 14.195312 L 20.226562 14.007812 L 20.023438 13.8125 L 19.667969 14.175781 L 19.3125 14.53125 L 19.507812 14.726562 L 19.695312 14.917969 L 19.507812 15.226562 C 19.304688 15.542969 19.0625 16.1875 19.0625 16.386719 C 19.0625 16.480469 19.011719 16.5 18.78125 16.5 L 18.5 16.5 L 18.5 17.5 L 18.78125 17.5 C 19.011719 17.5 19.0625 17.519531 19.0625 17.613281 C 19.0625 17.8125 19.304688 18.457031 19.507812 18.773438 L 19.695312 19.082031 L 19.507812 19.273438 L 19.3125 19.46875 L 19.667969 19.824219 L 20.023438 20.1875 L 20.21875 20 L 20.417969 19.804688 L 20.773438 20.023438 C 20.976562 20.144531 21.332031 20.292969 21.570312 20.355469 L 22 20.460938 L 22 21 L 23 21 L 23 20.457031 L 23.351562 20.382812 C 23.550781 20.335938 23.914062 20.195312 24.164062 20.0625 L 24.617188 19.832031 L 24.789062 20.007812 L 24.960938 20.1875 L 25.6875 19.476562 L 25.5 19.28125 L 25.304688 19.082031 L 25.523438 18.726562 C 25.644531 18.523438 25.792969 18.167969 25.855469 17.929688 L 25.960938 17.5 L 26.5 17.5 L 26.5 16.5 L 25.960938 16.5 L 25.855469 16.070312 C 25.792969 15.832031 25.644531 15.476562 25.523438 15.273438 L 25.304688 14.917969 L 25.5 14.71875 L 25.6875 14.523438 L 24.960938 13.8125 L 24.789062 13.988281 L 24.617188 14.167969 L 24.136719 13.925781 C 23.875 13.792969 23.507812 13.648438 23.332031 13.605469 L 23 13.53125 L 23 13 L 22 13 Z M 23.523438 14.738281 C 24.09375 15 24.457031 15.363281 24.738281 15.925781 C 24.957031 16.375 24.96875 16.429688 24.96875 17 C 24.96875 17.570312 24.957031 17.625 24.738281 18.074219 C 24.457031 18.644531 24.09375 18.992188 23.511719 19.269531 C 23.132812 19.449219 23.039062 19.46875 22.5 19.46875 C 21.960938 19.46875 21.867188 19.449219 21.5 19.273438 C 20.90625 18.988281 20.542969 18.644531 20.269531 18.074219 C 20.042969 17.625 20.03125 17.570312 20.03125 17.007812 C 20.03125 16.460938 20.050781 16.367188 20.230469 15.988281 C 20.480469 15.457031 20.835938 15.070312 21.304688 14.824219 C 21.792969 14.5625 22.070312 14.5 22.636719 14.523438 C 23.019531 14.542969 23.210938 14.59375 23.523438 14.738281 Z M 23.523438 14.738281 "></path>
<path style=" stroke:none;fill-rule:nonzero;fill:rgb(23.137255%,50.980395%,96.470588%);fill-opacity:1;" d="M 22.03125 15.054688 C 21.457031 15.207031 20.949219 15.617188 20.6875 16.15625 C 20.570312 16.414062 20.539062 16.570312 20.539062 17 C 20.53125 17.488281 20.550781 17.5625 20.742188 17.925781 C 20.980469 18.363281 21.179688 18.550781 21.648438 18.800781 C 21.917969 18.9375 22.050781 18.960938 22.5 18.960938 C 22.949219 18.960938 23.082031 18.9375 23.351562 18.800781 C 23.820312 18.550781 24.019531 18.363281 24.257812 17.925781 C 24.449219 17.5625 24.46875 17.488281 24.460938 17 C 24.460938 16.550781 24.4375 16.417969 24.300781 16.148438 C 24.054688 15.679688 23.863281 15.480469 23.445312 15.257812 C 23.039062 15.042969 22.417969 14.949219 22.03125 15.054688 Z M 22.894531 16.085938 C 23.539062 16.355469 23.695312 17.195312 23.195312 17.695312 C 22.789062 18.101562 22.210938 18.101562 21.804688 17.695312 C 21.03125 16.925781 21.886719 15.664062 22.894531 16.085938 Z M 22.894531 16.085938 "></path>
<path style=" stroke:none;fill-rule:nonzero;fill:rgb(0.784314%,2.352941%,9.019608%);fill-opacity:1;" d="M 6.15625 17.15625 L 6 17.304688 L 6 24.695312 L 6.15625 24.84375 L 6.304688 25 L 13.695312 25 L 13.84375 24.84375 L 14 24.695312 L 14 17.304688 L 13.84375 17.15625 L 13.695312 17 L 6.304688 17 Z M 13 21 L 13 24 L 7 24 L 7 18 L 13 18 Z M 13 21 "></path>
<path style=" stroke:none;fill-rule:nonzero;fill:rgb(86.274511%,14.901961%,14.901961%);fill-opacity:1;" d="M 7.980469 18.988281 C 7.820312 19.148438 7.6875 19.3125 7.6875 19.34375 C 7.6875 19.375 8.042969 19.761719 8.480469 20.199219 L 9.28125 21 L 7.65625 22.625 L 8.019531 22.980469 L 8.375 23.34375 L 10 21.71875 L 11.625 23.34375 L 11.980469 22.980469 L 12.34375 22.625 L 10.71875 21 L 11.519531 20.199219 C 11.957031 19.761719 12.3125 19.375 12.3125 19.335938 C 12.3125 19.261719 11.738281 18.6875 11.65625 18.6875 C 11.625 18.6875 11.238281 19.042969 10.800781 19.480469 L 10 20.28125 L 9.199219 19.480469 C 8.761719 19.042969 8.375 18.6875 8.335938 18.6875 C 8.304688 18.6875 8.144531 18.824219 7.980469 18.988281 Z M 7.980469 18.988281 "></path>
</g></svg></g></g><defs><clipPath id="SvgjsClipPath1025"><rect width="1000" height="1000" x="0" y="0" rx="250" ry="250"></rect></clipPath></defs></svg>