<?xml version="1.0" encoding="UTF-8"?>
<svg version="1.1" xmlns="http://www.w3.org/2000/svg" width="256" height="256">
<path fill="#E2E8F0" d="M0 0 C22.03852652 18.81159856 36.46579334 41.06373377 44.3515625 68.91015625 C44.69316406 70.08835937 45.03476563 71.2665625 45.38671875 72.48046875 C51.59092755 98.74014322 48.11935597 128.40755389 37.3515625 152.91015625 C36.92665527 153.89145508 36.92665527 153.89145508 36.49316406 154.89257812 C26.55015943 177.41540631 9.36838282 197.08371443 -11.6484375 209.91015625 C-12.7209375 210.59335938 -13.7934375 211.2765625 -14.8984375 211.98046875 C-42.75922794 228.94201478 -78.25061189 233.92648545 -110.03027344 226.74707031 C-117.81941729 224.77736357 -125.2980262 222.14033195 -132.6484375 218.91015625 C-133.30263672 218.62688477 -133.95683594 218.34361328 -134.63085938 218.05175781 C-164.72593234 204.76588414 -188.43262339 179.18859339 -200.51953125 148.71386719 C-202.47890077 143.51521742 -204.1350825 138.25415274 -205.6484375 132.91015625 C-205.99003906 131.73195312 -206.33164063 130.55375 -206.68359375 129.33984375 C-214.21743998 97.45240157 -207.83557456 61.43465161 -191.0078125 33.60546875 C-172.71931393 4.51560818 -145.47270495 -14.79440926 -112.6484375 -24.08984375 C-111.47023438 -24.43144531 -110.29203125 -24.77304687 -109.078125 -25.125 C-71.91216204 -33.90596927 -29.43835184 -24.14652242 0 0 Z M-116.140625 29.68359375 C-125.16297684 41.04008637 -126.81075958 52.74692916 -125.6484375 66.91015625 C-123.39662151 77.82181318 -116.41906662 88.11153965 -107.6484375 94.91015625 C-95.30366923 102.41348338 -82.6270014 105.1757797 -68.3359375 102.2265625 C-55.70878311 97.90391448 -45.63850699 89.57072185 -39.7109375 77.66015625 C-34.6496558 67.09948647 -33.41739369 54.11178423 -37.2734375 42.84765625 C-39.45742436 37.80589935 -42.34468157 33.28763286 -45.6484375 28.91015625 C-46.57462891 27.65525391 -46.57462891 27.65525391 -47.51953125 26.375 C-53.72483924 19.1905058 -64.26114055 13.70958668 -73.71044922 12.68701172 C-90.8915544 11.49579838 -104.81178983 16.21948075 -116.140625 29.68359375 Z M-145.2734375 123.53515625 C-152.68774813 133.78816273 -161.52119381 147.80086209 -159.6484375 160.91015625 C-158.02847656 163.94239082 -155.95517902 166.37472914 -153.6484375 168.91015625 C-152.813125 169.86535156 -152.813125 169.86535156 -151.9609375 170.83984375 C-133.771396 190.36223958 -107.83829675 199.67316629 -81.6484375 200.91015625 C-54.8413199 201.15312106 -29.30808811 190.17624865 -10.2265625 171.54296875 C-3.78817385 165.36001325 -3.78817385 165.36001325 -1.35546875 157.1484375 C-1.48678819 152.93016523 -2.55229821 149.19588731 -4.0859375 145.28515625 C-4.35035645 144.59929443 -4.61477539 143.91343262 -4.88720703 143.20678711 C-10.10869939 130.31335217 -19.76469175 114.17308821 -32.6484375 107.91015625 C-37.4468775 106.79981386 -39.51004633 106.40201625 -44.03515625 108.421875 C-45.12441406 109.13988281 -46.21367187 109.85789063 -47.3359375 110.59765625 C-61.20488458 119.27706668 -77.67191871 122.28395433 -93.7355957 118.78173828 C-102.63987594 116.61194003 -110.52403163 113.0848975 -118.328125 108.25 C-128.65464194 102.28704493 -139.64502313 116.35341458 -145.2734375 123.53515625 Z " transform="translate(208.6484375,27.08984375)"/>
</svg>
